<svg height="16" width="16" xmlns="http://www.w3.org/2000/svg" xmlns:xlink="http://www.w3.org/1999/xlink">
	<g transform="translate(0 -1036.3622)">
			<path d="m8.2934308 1052.7547-5.5876785-1.5445c-1.1083924-.3434-1.0972166-1.0042-1.1520777-1.8322-.034286-.5207-.076196-7.9498-.013967-9.0467.040385-.7142.1442636-1.3058 1.1660463-1.6466l5.4233489-1.4986a.39723302.39723302 0 0 1 .3421188 0l5.4126774 1.4955c1.022293.3409 1.125664.9327 1.166048 1.6466.06147 1.0978.02107 8.5261-.01396 9.0468-.05561.8279-.04371 1.4888-1.152078 1.8322zm-3.639358-4.4813c.2489063.018 2.3590179.038 4.2923531.042 1.4477171 0 2.7976491-.01 3.1892941-.029a1.4304453 1.4304453 0 0 0 .528036-.1271.73122368.73122368 0 0 0 .288524-.2329.37056457.37056457 0 0 0 .0668-.2341.56283145.56283145 0 0 0 -.05282-.2004.67763278.67763278 0 0 0 -.209029-.2634.98038327.98038327 0 0 0 -.368533-.1613.51457425.51457425 0 0 1 -.416282-.4122 1.9556869 1.9556869 0 0 0 -.464539-1.0091 1.0934067 1.0934067 0 0 0 -.736556-.3249.5100025.5100025 0 0 1 -.479019-.3131 2.9447057 2.9447057 0 0 0 -.7490018-1.0688h.0012-.0012a2.4227659 2.4227659 0 0 0 -1.0753711-.543c-.056159-.013-.1269936-.025-.2110647-.039-.07137-.011-.1450234-.019-.2196963-.025-2.0242602-.1615-2.4128578 1.6382-2.4575584 1.8851a.51635214.51635214 0 0 1 -.4724138.4711 1.8192968 1.8192968 0 0 0 -.387075.071 1.7194806 1.7194806 0 0 0 -.3512614.147 1.5439767 1.5439767 0 0 0 -.7926883 1.4942.86583597.86583597 0 0 0 .2522077.6472 1.5350873 1.5350873 0 0 0 .8257058.2268z" fill="url(#a)" fill-rule="evenodd" stroke-width=".253985"/>
	</g>
</svg>
