<svg enable-background="new 0 0 107.1 107.1" height="256" viewBox="0 0 107.1 107.1" width="256" xmlns="http://www.w3.org/2000/svg" xmlns:xlink="http://www.w3.org/1999/xlink">

	<linearGradient id="a" gradientTransform="matrix(1.5680499 0 0 1.8027781 -110.44057 -4477.9932)" gradientUnits="userSpaceOnUse" x1="97.084892" x2="78.346191" y1="2585.835" y2="2334.4385">
		<stop offset="0" stop-color="#f80"/>
		<stop offset=".451" stop-color="#ffb600"/>
		<stop offset="1" stop-color="#ffe500"/>
	</linearGradient>
	<style type="text/css">
		.st0{fill:#ffb600;}
		.st1{fill:#169300;}
	</style>
	<path  id="path3017-3" class="st0" d="m53.735569 104.76631-36.989115-10.22411c-7.337295-2.27314-7.263316-6.647978-7.6264833-12.129084-.2269845-3.446684-.5043935-52.625393-.0924736-59.887025.2673337-4.727882.9549908-8.643682 7.7189529-10.900016l35.901293-9.9198072a2.6295888 2.6295888 0 0 1 2.264741.016879l35.830643 9.899628c6.767338 2.256334 7.451627 6.173819 7.718961 10.900016.406868 7.266676.139454 56.440329-.09243 59.887054-.368127 5.481106-.289357 9.855903-7.626488 12.129044zm-24.091691-29.665247c1.6477.122575 15.616141.253992 28.414364.275693 9.583546.01608 18.519776-.03215 21.112375-.191699a9.4692097 9.4692097 0 0 0 3.495473-.840662 4.840528 4.840528 0 0 0 1.909958-1.541791 2.4530499 2.4530499 0 0 0 .442194-1.55019 3.7258112 3.7258112 0 0 0 -.34964-1.326542 4.4857691 4.4857691 0 0 0 -1.38373-1.743537 6.4899059 6.4899059 0 0 0 -2.439601-1.067647 3.4063599 3.4063599 0 0 1 -2.755684-2.728798 12.946185 12.946185 0 0 0 -3.075142-6.679888 7.2380944 7.2380944 0 0 0 -4.875827-2.150405 3.3760961 3.3760961 0 0 1 -3.170992-2.073083 19.493256 19.493256 0 0 0 -4.958214-7.074981h.008-.008a16.038138 16.038138 0 0 0 -7.118706-3.594682c-.371743-.08741-.840662-.168149-1.397192-.258935-.472456-.07061-.960023-.126111-1.454341-.168148-13.400124-1.06932-15.972549 10.844523-16.268457 12.478788a3.4181292 3.4181292 0 0 1 -3.127266 3.118827 12.043315 12.043315 0 0 0 -2.562345.467432 11.382555 11.382555 0 0 0 -2.32527.973486 10.220761 10.220761 0 0 0 -5.24741 9.891229 5.7316292 5.7316292 0 0 0 1.669555 4.284011 10.161915 10.161915 0 0 0 5.465978 1.501402z"
	 
	 />
</svg>
