<svg xmlns="http://www.w3.org/2000/svg" xmlns:xlink="http://www.w3.org/1999/xlink" width="385" height="100" viewBox="0 0 385 100">
  <defs>
    <linearGradient id="linear-gradient" x1="0.367" y1="1.764" x2="0.04" y2="-2.623" gradientUnits="objectBoundingBox">
      <stop offset="0" stop-color="#f80"/>
      <stop offset="0.451" stop-color="#ffb600"/>
      <stop offset="1" stop-color="#ffe500"/>
    </linearGradient>
    <clipPath id="clip-Artboard_2">
      <rect width="385" height="100"/>
    </clipPath>
  </defs>
  <g id="Artboard_2" data-name="Artboard – 2" clip-path="url(#clip-Artboard_2)">
    <path id="Path_67" data-name="Path 67" d="M37.732,86.753,6.661,78.173C.5,76.261.562,72.585.255,67.983c-.19-2.9-.419-44.191-.073-50.295.224-3.969.8-7.259,6.479-9.151L36.811.205a2.231,2.231,0,0,1,1.906.02L68.8,8.537c5.685,1.892,6.26,5.183,6.484,9.151.341,6.1.117,47.4-.078,50.295-.307,4.6-.244,8.278-6.406,10.19ZM17.5,61.845c1.38.1,13.115.215,23.855.229,8.049.015,15.553-.024,17.732-.161a7.9,7.9,0,0,0,2.935-.707,4.038,4.038,0,0,0,1.6-1.3,2.051,2.051,0,0,0,.371-1.3A3.142,3.142,0,0,0,63.7,57.5a3.731,3.731,0,0,0-1.165-1.463,5.423,5.423,0,0,0-2.048-.9,2.846,2.846,0,0,1-2.311-2.287A10.908,10.908,0,0,0,55.6,47.233a6.083,6.083,0,0,0-4.105-1.809,2.815,2.815,0,0,1-2.657-1.741,16.437,16.437,0,0,0-4.168-5.938l0,0,0,0a13.45,13.45,0,0,0-5.977-3.018c-.312-.078-.7-.146-1.175-.219-.395-.059-.8-.107-1.219-.141-11.252-.9-13.422,9.107-13.666,10.477a2.869,2.869,0,0,1-2.623,2.623,9.992,9.992,0,0,0-2.155.39,9.482,9.482,0,0,0-1.95.819,8.6,8.6,0,0,0-4.407,8.308c.137,1.828.6,2.959,1.4,3.593.951.761,2.511,1.126,4.607,1.277Z" transform="translate(4.822 4.319)" fill-rule="evenodd" fill="url(#linear-gradient)"/>
    <path id="Path_4240" data-name="Path 4240" d="M36.366-36.66,22.89-11.108V4.468H17.522V-11.108L3.988-36.66h6.184L20.264-16.767,30.3-36.66Zm14.284,8.692A16.991,16.991,0,0,1,58.9-25.984a14.194,14.194,0,0,1,5.717,5.717,17.754,17.754,0,0,1,2.071,8.751,17.587,17.587,0,0,1-2.071,8.722A14.242,14.242,0,0,1,58.9,2.893a16.991,16.991,0,0,1-8.255,1.983,16.991,16.991,0,0,1-8.255-1.983,14.434,14.434,0,0,1-5.746-5.688,17.391,17.391,0,0,1-2.1-8.722,17.555,17.555,0,0,1,2.1-8.751,14.384,14.384,0,0,1,5.746-5.717A16.991,16.991,0,0,1,50.649-27.968Zm0,4.667a11.1,11.1,0,0,0-5.28,1.283,9.649,9.649,0,0,0-3.909,3.938,13.263,13.263,0,0,0-1.488,6.563,13.133,13.133,0,0,0,1.488,6.5A9.649,9.649,0,0,0,45.37-1.074,11.1,11.1,0,0,0,50.649.21a11.1,11.1,0,0,0,5.28-1.283,9.649,9.649,0,0,0,3.909-3.938,13.133,13.133,0,0,0,1.488-6.5,13.263,13.263,0,0,0-1.488-6.563,9.649,9.649,0,0,0-3.909-3.938A11.1,11.1,0,0,0,50.649-23.3Zm53.7-4.259V4.468H99.039V-3.057a10.773,10.773,0,0,1-4.346,5.98,12.83,12.83,0,0,1-7.263,2.071,11.886,11.886,0,0,1-8.984-3.588Q75-2.182,75-8.891V-27.559h5.309V-9.416q0,4.784,2.45,7.38A8.707,8.707,0,0,0,89.413.56a9.092,9.092,0,0,0,7-2.829q2.625-2.829,2.625-8.255V-27.559Zm13.826,6.476a11.779,11.779,0,0,1,4.609-5.163,13.7,13.7,0,0,1,7.234-1.838v5.775h-1.633a11.343,11.343,0,0,0-7.351,2.3q-2.859,2.3-2.859,7.613V4.468h-5.309V-27.559h5.309ZM154.985.326h14.585V4.468H149.676V-36.66h5.309Zm34.536-28.294a16.991,16.991,0,0,1,8.255,1.983,14.194,14.194,0,0,1,5.717,5.717,17.754,17.754,0,0,1,2.071,8.751,17.588,17.588,0,0,1-2.071,8.722,14.242,14.242,0,0,1-5.717,5.688,16.991,16.991,0,0,1-8.255,1.983,16.991,16.991,0,0,1-8.255-1.983,14.434,14.434,0,0,1-5.746-5.688,17.391,17.391,0,0,1-2.1-8.722,17.555,17.555,0,0,1,2.1-8.751,14.384,14.384,0,0,1,5.746-5.717A16.991,16.991,0,0,1,189.521-27.968Zm0,4.667a11.1,11.1,0,0,0-5.28,1.283,9.649,9.649,0,0,0-3.909,3.938,13.263,13.263,0,0,0-1.488,6.563,13.133,13.133,0,0,0,1.488,6.5,9.649,9.649,0,0,0,3.909,3.938A11.1,11.1,0,0,0,189.521.21a11.1,11.1,0,0,0,5.28-1.283,9.649,9.649,0,0,0,3.909-3.938,13.133,13.133,0,0,0,1.488-6.5,13.263,13.263,0,0,0-1.488-6.563,9.649,9.649,0,0,0-3.909-3.938A11.1,11.1,0,0,0,189.521-23.3Zm36.111-4.667a13.16,13.16,0,0,1,7.9,2.334,12.162,12.162,0,0,1,4.521,6.242v-8.167h5.309V4.021A16.254,16.254,0,0,1,241.5,11.9a13.409,13.409,0,0,1-5.25,5.367,15.651,15.651,0,0,1-7.876,1.925q-6.476,0-10.559-3.121a13.773,13.773,0,0,1-5.192-8.43h5.25a9.093,9.093,0,0,0,3.529,5.046,11.3,11.3,0,0,0,6.68,1.838,9.8,9.8,0,0,0,7.146-2.771q2.829-2.771,2.829-7.73V-3.7a12.162,12.162,0,0,1-4.521,6.242,13.16,13.16,0,0,1-7.9,2.334,14.517,14.517,0,0,1-7.584-1.983,13.719,13.719,0,0,1-5.221-5.688,18.908,18.908,0,0,1-1.9-8.722,19.09,19.09,0,0,1,1.9-8.751,13.681,13.681,0,0,1,5.221-5.717A14.517,14.517,0,0,1,225.632-27.968Zm1.517,4.725a10.282,10.282,0,0,0-7.846,3.121q-2.946,3.121-2.946,8.6t2.946,8.6A10.282,10.282,0,0,0,227.149.21a10.893,10.893,0,0,0,5.63-1.458,10.153,10.153,0,0,0,3.879-4.113,13,13,0,0,0,1.4-6.155,13.177,13.177,0,0,0-1.4-6.184,9.915,9.915,0,0,0-3.879-4.113A11.066,11.066,0,0,0,227.149-23.242Zm39.2-4.725a16.991,16.991,0,0,1,8.255,1.983,14.194,14.194,0,0,1,5.717,5.717,17.754,17.754,0,0,1,2.071,8.751,17.588,17.588,0,0,1-2.071,8.722,14.242,14.242,0,0,1-5.717,5.688,16.991,16.991,0,0,1-8.255,1.983A16.992,16.992,0,0,1,258.1,2.893a14.434,14.434,0,0,1-5.746-5.688,17.391,17.391,0,0,1-2.1-8.722,17.555,17.555,0,0,1,2.1-8.751,14.384,14.384,0,0,1,5.746-5.717A16.991,16.991,0,0,1,266.352-27.968Zm0,4.667a11.1,11.1,0,0,0-5.28,1.283,9.649,9.649,0,0,0-3.909,3.938,13.263,13.263,0,0,0-1.488,6.563,13.133,13.133,0,0,0,1.488,6.5,9.649,9.649,0,0,0,3.909,3.938A11.1,11.1,0,0,0,266.352.21a11.1,11.1,0,0,0,5.28-1.283,9.649,9.649,0,0,0,3.909-3.938,13.133,13.133,0,0,0,1.488-6.5,13.263,13.263,0,0,0-1.488-6.563,9.649,9.649,0,0,0-3.909-3.938A11.1,11.1,0,0,0,266.352-23.3Z" transform="translate(88 50.64)" fill="#3f3d56" stroke="#3f3d56" stroke-linecap="round" stroke-linejoin="round" stroke-width="4"/>
    <path id="Path_4241" data-name="Path 4241" d="M3.91-4.216V0H1V-12.019H5.712a4.573,4.573,0,0,1,3.264,1.063A3.758,3.758,0,0,1,10.1-8.092a3.946,3.946,0,0,1-.5,2A3.477,3.477,0,0,1,8.109-4.718a5.24,5.24,0,0,1-2.4.5ZM5.389-6.545q1.751,0,1.751-1.547,0-1.581-1.751-1.581H3.91v3.128ZM19.72-12.206a6.115,6.115,0,0,1,3.085.791A5.759,5.759,0,0,1,24.99-9.222a6.29,6.29,0,0,1,.8,3.17,6.285,6.285,0,0,1-.807,3.179,5.8,5.8,0,0,1-2.193,2.2A6.082,6.082,0,0,1,19.72.119a6.082,6.082,0,0,1-3.069-.791,5.8,5.8,0,0,1-2.193-2.2,6.285,6.285,0,0,1-.807-3.179,6.238,6.238,0,0,1,.807-3.17,5.82,5.82,0,0,1,2.193-2.193A6.082,6.082,0,0,1,19.72-12.206Zm0,2.7a2.914,2.914,0,0,0-2.27.926,3.614,3.614,0,0,0-.841,2.525,3.62,3.62,0,0,0,.841,2.516,2.9,2.9,0,0,0,2.27.935,2.908,2.908,0,0,0,2.261-.935,3.6,3.6,0,0,0,.85-2.516,3.62,3.62,0,0,0-.841-2.516A2.9,2.9,0,0,0,19.72-9.5Zm26.52-2.516L43.367,0h-3.6L37.842-8.041,35.9,0H32.3L29.427-12.019h3.162l1.547,8.7,2.108-8.7h3.179l2.108,8.7,1.564-8.7Zm6.919,2.312v2.516h4.063V-5H53.159v2.669h4.573V0h-7.48V-12.019h7.48v2.312ZM68.034,0l-2.6-4.539H64.77V0H61.863V-12.019h4.964a5.359,5.359,0,0,1,2.414.493,3.4,3.4,0,0,1,1.479,1.352,3.872,3.872,0,0,1,.493,1.964,3.49,3.49,0,0,1-.722,2.227,3.693,3.693,0,0,1-2.1,1.258L71.247,0ZM64.77-6.528h1.8a1.815,1.815,0,0,0,1.275-.383,1.476,1.476,0,0,0,.408-1.131,1.5,1.5,0,0,0-.417-1.122,1.745,1.745,0,0,0-1.267-.408h-1.8ZM78.064-9.707v2.516h4.063V-5H78.064v2.669h4.573V0h-7.48V-12.019h7.48v2.312ZM97.58-6.035A6.375,6.375,0,0,1,96.824-2.9,5.3,5.3,0,0,1,94.647-.765,6.94,6.94,0,0,1,91.307,0H86.768V-12.019h4.539a7.056,7.056,0,0,1,3.349.748,5.219,5.219,0,0,1,2.168,2.108A6.327,6.327,0,0,1,97.58-6.035ZM91.052-2.6A3.674,3.674,0,0,0,93.7-3.5a3.336,3.336,0,0,0,.944-2.533A3.336,3.336,0,0,0,93.7-8.568a3.674,3.674,0,0,0-2.643-.9H89.675V-2.6ZM114.8-6.188a3.01,3.01,0,0,1,1.726,1.054,2.885,2.885,0,0,1,.637,1.853,2.986,2.986,0,0,1-1.028,2.414,4.456,4.456,0,0,1-2.95.867h-5.593V-12.019h5.457a4.456,4.456,0,0,1,2.839.8,2.743,2.743,0,0,1,1,2.278,2.806,2.806,0,0,1-.578,1.811A2.664,2.664,0,0,1,114.8-6.188Zm-4.3-.918h1.9q1.513,0,1.513-1.292T112.37-9.69H110.5Zm2.074,4.743q1.615,0,1.615-1.326a1.263,1.263,0,0,0-.425-1.012,1.8,1.8,0,0,0-1.207-.365H110.5v2.7Zm18.989-9.656L127.4-4V0h-2.924V-4l-4.165-8.024h3.332l2.312,4.9,2.312-4.9Zm13.617-.527a4.94,4.94,0,0,1,2.159.434,3.176,3.176,0,0,1,1.368,1.19,3.184,3.184,0,0,1,.467,1.708,2.825,2.825,0,0,1-.6,1.887,2.617,2.617,0,0,1-1.5.9v.085A2.9,2.9,0,0,1,149.4-3.434a3.563,3.563,0,0,1-.476,1.844,3.219,3.219,0,0,1-1.386,1.258,4.877,4.877,0,0,1-2.184.45,4.955,4.955,0,0,1-3.29-1.02,4.111,4.111,0,0,1-1.317-3.111h2.839a1.958,1.958,0,0,0,.442,1.258,1.509,1.509,0,0,0,1.19.459,1.327,1.327,0,0,0,.995-.374,1.328,1.328,0,0,0,.365-.969q0-1.479-2.142-1.479h-.544V-7.48h.527q1.921.034,1.921-1.377A1.276,1.276,0,0,0,146-9.8a1.206,1.206,0,0,0-.893-.332,1.21,1.21,0,0,0-.969.417,1.872,1.872,0,0,0-.408,1.113H140.9a4.042,4.042,0,0,1,1.19-2.924A4.391,4.391,0,0,1,145.18-12.546Zm19.448,6.511a6.375,6.375,0,0,1-.757,3.137A5.3,5.3,0,0,1,161.7-.765a6.94,6.94,0,0,1-3.34.765h-4.539V-12.019h4.539a7.057,7.057,0,0,1,3.349.748,5.219,5.219,0,0,1,2.167,2.108A6.327,6.327,0,0,1,164.628-6.035ZM158.1-2.6a3.674,3.674,0,0,0,2.643-.9,3.336,3.336,0,0,0,.944-2.533,3.336,3.336,0,0,0-.944-2.533,3.674,3.674,0,0,0-2.643-.9h-1.377V-2.6Zm13.566-1.615V0h-2.907V-12.019h4.709a4.573,4.573,0,0,1,3.264,1.063,3.758,3.758,0,0,1,1.122,2.865,3.947,3.947,0,0,1-.5,2,3.477,3.477,0,0,1-1.488,1.377,5.24,5.24,0,0,1-2.4.5Zm1.479-2.329q1.751,0,1.751-1.547,0-1.581-1.751-1.581h-1.479v3.128ZM187.935,0l-2.6-4.539h-.663V0h-2.907V-12.019h4.964a5.359,5.359,0,0,1,2.414.493,3.4,3.4,0,0,1,1.479,1.352,3.872,3.872,0,0,1,.493,1.964,3.49,3.49,0,0,1-.723,2.227,3.693,3.693,0,0,1-2.1,1.258L191.148,0Zm-3.264-6.528h1.8a1.815,1.815,0,0,0,1.275-.383,1.476,1.476,0,0,0,.408-1.131,1.5,1.5,0,0,0-.417-1.122,1.745,1.745,0,0,0-1.266-.408h-1.8Zm13.294-5.491V0h-2.907V-12.019ZM213.129,0h-2.907L205.36-7.378V0h-2.907V-12.019h2.907l4.862,7.446v-7.446h2.907Zm13.124-12.019v2.312h-3.264V0h-2.924V-9.707h-3.23v-2.312Zm6.613,2.312v2.516h4.063V-5h-4.063v2.669h4.573V0h-7.48V-12.019h7.48v2.312ZM247.741,0l-2.6-4.539h-.663V0H241.57V-12.019h4.964a5.359,5.359,0,0,1,2.414.493,3.4,3.4,0,0,1,1.479,1.352,3.872,3.872,0,0,1,.493,1.964,3.49,3.49,0,0,1-.723,2.227,3.693,3.693,0,0,1-2.1,1.258L250.954,0Zm-3.264-6.528h1.8a1.815,1.815,0,0,0,1.275-.383,1.476,1.476,0,0,0,.408-1.131,1.5,1.5,0,0,0-.417-1.122,1.745,1.745,0,0,0-1.266-.408h-1.8Zm16.1-5.678a6.115,6.115,0,0,1,3.085.791,5.759,5.759,0,0,1,2.185,2.193,6.29,6.29,0,0,1,.8,3.17,6.285,6.285,0,0,1-.808,3.179,5.8,5.8,0,0,1-2.193,2.2,6.082,6.082,0,0,1-3.068.791,6.082,6.082,0,0,1-3.069-.791,5.8,5.8,0,0,1-2.193-2.2,6.285,6.285,0,0,1-.808-3.179,6.238,6.238,0,0,1,.808-3.17,5.82,5.82,0,0,1,2.193-2.193A6.082,6.082,0,0,1,260.576-12.206Zm0,2.7a2.914,2.914,0,0,0-2.27.926,3.614,3.614,0,0,0-.842,2.525,3.62,3.62,0,0,0,.842,2.516,2.9,2.9,0,0,0,2.27.935,2.908,2.908,0,0,0,2.261-.935,3.6,3.6,0,0,0,.85-2.516,3.62,3.62,0,0,0-.841-2.516A2.9,2.9,0,0,0,260.576-9.5ZM279.4-3.383a3.314,3.314,0,0,1-.484,1.751,3.417,3.417,0,0,1-1.428,1.275A5.031,5.031,0,0,1,275.2.119a5.385,5.385,0,0,1-3.332-.986,3.573,3.573,0,0,1-1.428-2.754h3.094a1.633,1.633,0,0,0,.485,1.071,1.49,1.49,0,0,0,1.063.391,1.233,1.233,0,0,0,.884-.306,1.071,1.071,0,0,0,.323-.816,1.054,1.054,0,0,0-.3-.765,2.332,2.332,0,0,0-.74-.5q-.442-.2-1.224-.468a15.027,15.027,0,0,1-1.862-.756,3.429,3.429,0,0,1-1.241-1.088,3.148,3.148,0,0,1-.518-1.878,3.163,3.163,0,0,1,.544-1.853,3.458,3.458,0,0,1,1.5-1.2,5.488,5.488,0,0,1,2.2-.417,4.935,4.935,0,0,1,3.188.952,3.632,3.632,0,0,1,1.335,2.618h-3.145a1.613,1.613,0,0,0-.434-.944,1.275,1.275,0,0,0-.944-.348,1.216,1.216,0,0,0-.824.272,1,1,0,0,0-.315.8,1.015,1.015,0,0,0,.281.722,2.137,2.137,0,0,0,.706.485q.425.187,1.224.476a13.454,13.454,0,0,1,1.887.773,3.61,3.61,0,0,1,1.258,1.114A3.181,3.181,0,0,1,279.4-3.383Z" transform="translate(94 88)" fill="#3f3d56"/>
  </g>
</svg>
